<?xml version="1.0" encoding="utf-8"?>
<!-- Generated by IcoMoon.io -->
<!DOCTYPE svg PUBLIC "-//W3C//DTD SVG 1.1//EN" "http://www.w3.org/Graphics/SVG/1.1/DTD/svg11.dtd">
<svg version="1.1" xmlns="http://www.w3.org/2000/svg" xmlns:xlink="http://www.w3.org/1999/xlink" width="512" height="512" viewBox="0 0 512 512">
<g>
</g>
	<path d="M349.194 195.932c-37.264 0-70.185 18.637-90 47.063 54.805 11.438 95.99 60.037 95.99 118.211 0 19.364-4.608 37.591-12.749 53.801 2.274 0.144 4.485 0.358 6.759 0.358 60.601 0 109.691-49.142 109.691-109.742 0-60.56-49.091-109.691-109.691-109.691z" fill="#ffffff" />
	<path d="M329.707 374.006c0 65.586-53.168 118.754-118.754 118.754s-118.754-53.168-118.754-118.754c0-65.586 53.167-118.754 118.754-118.754 65.585 0 118.754 53.167 118.754 118.754z" fill="#ffffff" />
	<path d="M95.724 19.23h32.604v67.113h-32.604v-67.113z" fill="#ffffff" />
	<path d="M57.815 101.95v0c0.4-0.112 47.719-10.608 84.593 18.985 31.621 25.415 47.298 72.397 46.684 139.735l20.244 0.185c0.717-74.005-17.633-126.433-54.457-155.874-44.739-35.727-99.441-23.296-101.755-22.763l4.69 19.733z" fill="#ffffff" />
	<path d="M119.695 84.921h-0.031c5.222-0.512 127.641-10.517 187.115 131.83l18.719-7.813c-65.423-156.549-206.387-144.333-207.81-144.19l2.007 20.173z" fill="#ffffff" />
</svg>
