<?xml version="1.0" encoding="utf-8"?>
<!-- Generated by IcoMoon.io -->
<!DOCTYPE svg PUBLIC "-//W3C//DTD SVG 1.1//EN" "http://www.w3.org/Graphics/SVG/1.1/DTD/svg11.dtd">
<svg version="1.1" xmlns="http://www.w3.org/2000/svg" xmlns:xlink="http://www.w3.org/1999/xlink" width="512" height="512" viewBox="0 0 512 512">
<g>
</g>
  <path d="M329.707 374.006c0 65.586-53.168 118.754-118.754 118.754s-118.754-53.168-118.754-118.754c0-65.586 53.167-118.754 118.754-118.754 65.585 0 118.754 53.167 118.754 118.754z" fill="#ffffff" />
  <path d="M95.724 19.23h32.604v67.113h-32.604v-67.113z" fill="#ffffff" />
  <path d="M57.815 101.95v0c0.4-0.112 47.719-10.608 84.593 18.985 31.621 25.415 47.298 72.397 46.684 139.735l20.244 0.185c0.717-74.005-17.633-126.433-54.457-155.874-44.739-35.727-99.441-23.296-101.755-22.763l4.69 19.733z" fill="#ffffff" />
</svg>
